<svg xmlns="http://www.w3.org/2000/svg" viewBox="0 0 900 560" role="img" aria-labelledby="t"><title id="t">AgiBot G2 illustration</title><defs><linearGradient id="bg" x1="0" y1="0" x2="1" y2="1"><stop stop-color="#eefaff"/><stop offset="1" stop-color="#dceef7"/></linearGradient><linearGradient id="m" x1="0" y1="0" x2="1" y2="1"><stop stop-color="#ffffff"/><stop offset="1" stop-color="#c2d0d7"/></linearGradient></defs><rect width="900" height="560" rx="36" fill="url(#bg)"/><ellipse cx="500" cy="495" rx="230" ry="26" fill="#0c3448" opacity=".12"/><rect x="335" y="405" width="330" height="82" rx="28" fill="#1d303a"/><rect x="390" y="365" width="220" height="58" rx="22" fill="#e7eef2" stroke="#0c3448" stroke-width="8"/><rect x="430" y="165" width="140" height="220" rx="46" fill="url(#m)" stroke="#0c3448" stroke-width="9"/><rect x="448" y="70" width="104" height="112" rx="40" fill="#182a34"/><rect x="470" y="108" width="60" height="15" rx="8" fill="#4ad7ff"/><g fill="url(#m)" stroke="#0c3448" stroke-width="9"><rect x="315" y="205" width="130" height="38" rx="19" transform="rotate(-18 315 205)"/><rect x="555" y="205" width="130" height="38" rx="19" transform="rotate(18 555 205)"/><rect x="285" y="272" width="115" height="34" rx="17" transform="rotate(-10 285 272)"/><rect x="600" y="272" width="115" height="34" rx="17" transform="rotate(10 600 272)"/></g><circle cx="500" cy="260" r="14" fill="#009ad2"/><text x="44" y="66" font-family="Arial,sans-serif" font-size="34" font-weight="700" fill="#0c3448">AgiBot G2</text><text x="44" y="104" font-family="Arial,sans-serif" font-size="18" fill="#5f7480">Mobile humanoid platform</text></svg>