<svg xmlns="http://www.w3.org/2000/svg" viewBox="0 0 248 286" role="img" aria-labelledby="title">
  <title id="title">AirAdmin8</title>
  <path fill="#211714" fill-rule="evenodd" d="M94 126 84 138 78 154 78 170 81 180 86 189 137 240 152 249 159 251 171 252 187 248 197 242 205 234 209 228 214 215 214 210 215 209 214 195 211 186 205 176 194 166 181 160 171 159 170 158 155 160 144 165 134 173 128 181 119 203 117 205 101 189 105 179 113 165 123 154 134 146 151 139 164 137 149 122 141 118 128 115 114 116 105 119ZM237 164 230 154 219 143 209 136 198 131 195 124 187 112 174 99 160 90 147 85 132 82 116 82 115 83 105 84 93 88 83 93 72 101 64 109 54 123 49 134 45 150 45 159 44 160 45 170 34 174 24 180 17 186 8 198 5 204 1 218 1 236 5 250 13 263 23 273 37 281 53 285 64 285 80 281 94 273 108 258 115 265 129 275 140 280 154 284 174 285 175 284 182 284 199 279 215 270 230 256 237 246 242 236 246 224 247 214 248 213 247 191 242 174ZM59 217 62 224 69 227 61 232 59 238 56 231 48 227 54 225ZM226 169 232 181 236 198 236 212 232 229 226 241 221 248 207 261 192 269 174 273 162 273 147 270 134 264 124 257 75 208 66 203 55 202 45 206 38 213 34 222 35 235 38 241 44 247 49 250 59 252 60 251 65 251 72 248 79 241 84 232 99 247 96 254 86 264 78 269 69 272 64 272 63 273 48 272 31 264 22 255 16 245 13 235 13 219 15 211 19 203 25 195 35 187 47 182 59 181 57 173 57 150 61 136 69 122 80 110 90 103 100 98 117 94 131 94 132 95 142 96 157 102 166 108 178 120 184 129 188 140 202 146 211 152 221 162Z"/>
</svg>
