<svg xmlns="http://www.w3.org/2000/svg" viewBox="0 0 900 560" role="img" aria-labelledby="t"><title id="t">Robot sensors illustration</title><defs><linearGradient id="bg" x1="0" y1="0" x2="1" y2="1"><stop stop-color="#f6fbfd"/><stop offset="1" stop-color="#e2f0f5"/></linearGradient><linearGradient id="m" x1="0" y1="0" x2="1" y2="1"><stop stop-color="#ffffff"/><stop offset="1" stop-color="#bdcad1"/></linearGradient></defs><rect width="900" height="560" rx="36" fill="url(#bg)"/><g transform="translate(170 170)"><rect x="0" y="90" width="170" height="130" rx="28" fill="url(#m)" stroke="#0c3448" stroke-width="9"/><circle cx="85" cy="155" r="42" fill="#1d303a"/><circle cx="85" cy="155" r="18" fill="#4ad7ff"/><rect x="25" y="42" width="120" height="62" rx="22" fill="#253944"/><circle cx="55" cy="73" r="10" fill="#4ad7ff"/><circle cx="115" cy="73" r="10" fill="#4ad7ff"/></g><g transform="translate(455 165)"><ellipse cx="115" cy="225" rx="120" ry="22" fill="#0c3448" opacity=".12"/><rect x="30" y="85" width="170" height="140" rx="30" fill="url(#m)" stroke="#0c3448" stroke-width="9"/><rect x="60" y="42" width="110" height="60" rx="20" fill="#253944"/><path d="M85 35h60l18-24H67z" fill="#009ad2"/><circle cx="115" cy="155" r="32" fill="#1d303a"/><circle cx="115" cy="155" r="12" fill="#4ad7ff"/></g><text x="44" y="66" font-family="Arial,sans-serif" font-size="34" font-weight="700" fill="#0c3448">Sensors / Edge AI</text><text x="44" y="104" font-family="Arial,sans-serif" font-size="18" fill="#5f7480">LiDAR / RGB-D / onboard compute</text></svg>