<svg xmlns="http://www.w3.org/2000/svg" viewBox="0 0 900 560" role="img" aria-labelledby="t"><title id="t">Unitree Go2 illustration</title><defs><linearGradient id="bg" x1="0" y1="0" x2="1" y2="1"><stop stop-color="#eef6ff"/><stop offset="1" stop-color="#d8e4f8"/></linearGradient><linearGradient id="body" x1="0" y1="0" x2="1" y2="1"><stop stop-color="#f9fbfc"/><stop offset="1" stop-color="#aebcc6"/></linearGradient></defs><rect width="900" height="560" rx="36" fill="url(#bg)"/><ellipse cx="470" cy="455" rx="270" ry="30" fill="#0c3448" opacity=".14"/><rect x="292" y="195" width="330" height="150" rx="58" fill="url(#body)" stroke="#0c3448" stroke-width="10"/><rect x="340" y="155" width="120" height="70" rx="28" fill="#1c2c36"/><rect x="360" y="178" width="80" height="14" rx="7" fill="#4ad7ff"/><g fill="url(#body)" stroke="#0c3448" stroke-width="10"><rect x="265" y="310" width="45" height="150" rx="22" transform="rotate(15 265 310)"/><rect x="385" y="325" width="45" height="145" rx="22" transform="rotate(-10 385 325)"/><rect x="540" y="325" width="45" height="145" rx="22" transform="rotate(10 540 325)"/><rect x="655" y="310" width="45" height="150" rx="22" transform="rotate(-15 655 310)"/></g><circle cx="346" cy="272" r="11" fill="#009ad2"/><text x="44" y="66" font-family="Arial,sans-serif" font-size="34" font-weight="700" fill="#0c3448">Unitree Go2</text><text x="44" y="104" font-family="Arial,sans-serif" font-size="18" fill="#5f7480">Quadruped research platform</text></svg>