<svg xmlns="http://www.w3.org/2000/svg" viewBox="0 0 900 560" role="img" aria-labelledby="t"><title id="t">Unitree G1-D illustration</title><defs><linearGradient id="bg" x1="0" y1="0" x2="1" y2="1"><stop stop-color="#eefaff"/><stop offset="1" stop-color="#dbeef6"/></linearGradient><linearGradient id="metal" x1="0" y1="0" x2="1" y2="1"><stop stop-color="#ffffff"/><stop offset="1" stop-color="#c9d7de"/></linearGradient></defs><rect width="900" height="560" rx="36" fill="url(#bg)"/><ellipse cx="470" cy="500" rx="230" ry="26" fill="#0c3448" opacity=".12"/><rect x="295" y="398" width="360" height="92" rx="28" fill="#253844"/><rect x="330" y="350" width="290" height="70" rx="24" fill="#e6edf1" stroke="#0c3448" stroke-width="8"/><rect x="430" y="195" width="90" height="180" rx="24" fill="url(#metal)" stroke="#0c3448" stroke-width="8"/><rect x="352" y="170" width="246" height="145" rx="48" fill="url(#metal)" stroke="#0c3448" stroke-width="8"/><rect x="410" y="75" width="130" height="110" rx="42" fill="#182a34"/><rect x="440" y="110" width="70" height="16" rx="8" fill="#4ad7ff"/><g fill="url(#metal)" stroke="#0c3448" stroke-width="8"><rect x="278" y="190" width="105" height="34" rx="17" transform="rotate(-18 278 190)"/><rect x="565" y="190" width="105" height="34" rx="17" transform="rotate(18 565 190)"/><rect x="248" y="243" width="102" height="32" rx="16" transform="rotate(-12 248 243)"/><rect x="600" y="243" width="102" height="32" rx="16" transform="rotate(12 600 243)"/></g><circle cx="454" cy="245" r="10" fill="#009ad2"/><circle cx="496" cy="245" r="10" fill="#009ad2"/><text x="44" y="66" font-family="Arial,sans-serif" font-size="34" font-weight="700" fill="#0c3448">Unitree G1-D</text><text x="44" y="104" font-family="Arial,sans-serif" font-size="18" fill="#5f7480">Data collection platform</text></svg>